<svg width="32" height="32" viewBox="0 0 32 32" fill="none" xmlns="http://www.w3.org/2000/svg">
<path d="M19.1258 11.1043L12.762 17.3924C12.3725 17.7773 12.1537 18.2992 12.1537 18.8435C12.1537 19.3878 12.3725 19.9098 12.762 20.2946C13.1515 20.6795 13.6798 20.8957 14.2306 20.8957C14.7814 20.8957 15.3096 20.6795 15.6991 20.2946L22.0629 14.0065C22.8419 13.2368 23.2795 12.1929 23.2795 11.1043C23.2795 10.0158 22.8419 8.97184 22.0629 8.20213C21.2839 7.43242 20.2274 7 19.1258 7C18.0241 7 16.9676 7.43242 16.1886 8.20213L9.82489 14.4902C8.65643 15.6448 8 17.2107 8 18.8435C8 20.4763 8.65643 22.0422 9.82489 23.1968C10.9933 24.3514 12.5781 25 14.2306 25C15.883 25 17.4678 24.3514 18.6362 23.1968L25 16.9087" stroke="#797979" stroke-width="1.5" stroke-linecap="round" stroke-linejoin="round"/>
</svg>
