<svg width="18" height="20" viewBox="0 0 18 20" fill="none" xmlns="http://www.w3.org/2000/svg">
<path d="M14.5 6.69992C14.5 5.14398 13.9206 3.65177 12.889 2.55156C11.8576 1.45134 10.4587 0.833252 9 0.833252C7.54131 0.833252 6.14237 1.45134 5.11091 2.55156C4.07946 3.65177 3.5 5.14398 3.5 6.69992C3.5 13.5444 0.75 15.4999 0.75 15.4999H17.25C17.25 15.4999 14.5 13.5444 14.5 6.69992Z" stroke="black" stroke-width="1.375" stroke-linecap="round" stroke-linejoin="round"/>
<path d="M10.5859 18.25C10.4247 18.5278 10.1934 18.7585 9.91503 18.9187C9.63673 19.079 9.32122 19.1635 9.00002 19.1635C8.67882 19.1635 8.3633 19.079 8.085 18.9187C7.8067 18.7585 7.57533 18.5278 7.41418 18.25" stroke="black" stroke-width="1.375" stroke-linecap="round" stroke-linejoin="round"/>
</svg>
