<svg width="32" height="32" viewBox="0 0 32 32" fill="none" xmlns="http://www.w3.org/2000/svg">
<path d="M13 10C13 9.20435 13.3161 8.44129 13.8787 7.87868C14.4413 7.31607 15.2044 7 16 7C16.7956 7 17.5587 7.31607 18.1213 7.87868C18.6839 8.44129 19 9.20435 19 10V15C19 15.7957 18.6839 16.5587 18.1213 17.1213C17.5587 17.6839 16.7956 18 16 18C15.2044 18 14.4413 17.6839 13.8787 17.1213C13.3161 16.5587 13 15.7957 13 15V10Z" stroke="#797979" stroke-width="1.5" stroke-linecap="round" stroke-linejoin="round"/>
<path d="M9 15C9 16.8565 9.7375 18.637 11.0503 19.9497C12.363 21.2625 14.1435 22 16 22C17.8565 22 19.637 21.2625 20.9497 19.9497C22.2625 18.637 23 16.8565 23 15" stroke="#797979" stroke-width="1.5" stroke-linecap="round" stroke-linejoin="round"/>
<path d="M12 26H20" stroke="#797979" stroke-width="1.5" stroke-linecap="round" stroke-linejoin="round"/>
<path d="M16 22V26" stroke="#797979" stroke-width="1.5" stroke-linecap="round" stroke-linejoin="round"/>
</svg>
