<svg width="40" height="40" viewBox="0 0 40 40" fill="none" xmlns="http://www.w3.org/2000/svg">
<g clip-path="url(#clip0_110_3382)">
<circle cx="20" cy="20" r="20" fill="#F1F1F1"/>
<path fill-rule="evenodd" clip-rule="evenodd" d="M19.4167 13C18.7053 13 18.001 13.1401 17.3438 13.4123C16.6866 13.6845 16.0895 14.0835 15.5865 14.5865C15.0835 15.0895 14.6845 15.6866 14.4123 16.3438C14.1401 17.001 14 17.7053 14 18.4167C14 19.128 14.1401 19.8324 14.4123 20.4895C14.6845 21.1467 15.0835 21.7438 15.5865 22.2468C16.0895 22.7498 16.6866 23.1488 17.3438 23.421C18.001 23.6932 18.7053 23.8333 19.4167 23.8333C20.128 23.8333 20.8324 23.6932 21.4895 23.421C21.9144 23.245 22.3142 23.0161 22.6796 22.7403L26.2197 26.2803C26.5126 26.5732 26.9874 26.5732 27.2803 26.2803C27.5732 25.9874 27.5732 25.5126 27.2803 25.2197L23.7403 21.6796C24.0161 21.3142 24.245 20.9144 24.421 20.4895C24.6932 19.8324 24.8333 19.128 24.8333 18.4167C24.8333 17.7053 24.6932 17.001 24.421 16.3438C24.1488 15.6866 23.7498 15.0895 23.2468 14.5865C22.7438 14.0835 22.1467 13.6845 21.4895 13.4123C20.8324 13.1401 20.128 13 19.4167 13ZM17.9178 14.7981C18.393 14.6013 18.9023 14.5 19.4167 14.5C19.931 14.5 20.4403 14.6013 20.9155 14.7981C21.3907 14.995 21.8225 15.2835 22.1862 15.6472C22.5499 16.0109 22.8384 16.4426 23.0352 16.9178C23.232 17.393 23.3333 17.9023 23.3333 18.4167C23.3333 18.931 23.232 19.4403 23.0352 19.9155C22.8384 20.3907 22.5499 20.8225 22.1862 21.1862C21.8225 21.5499 21.3907 21.8384 20.9155 22.0352C20.4403 22.232 19.931 22.3333 19.4167 22.3333C18.9023 22.3333 18.393 22.232 17.9178 22.0352C17.4426 21.8384 17.0109 21.5499 16.6472 21.1862C16.2835 20.8225 15.995 20.3907 15.7981 19.9155C15.6013 19.4403 15.5 18.931 15.5 18.4167C15.5 17.9023 15.6013 17.393 15.7981 16.9178C15.995 16.4426 16.2835 16.0109 16.6472 15.6472C17.0109 15.2835 17.4426 14.995 17.9178 14.7981Z" fill="#797979"/>
</g>
<defs>
<clipPath id="clip0_110_3382">
<rect width="40" height="40" fill="white"/>
</clipPath>
</defs>
</svg>
