<svg width="24" height="24" viewBox="0 0 24 24" fill="none" xmlns="http://www.w3.org/2000/svg">
  <path d="M12.0003 20.3333C7.39795 20.3333 3.66699 16.6023 3.66699 12C3.66699 7.39761 7.39795 3.66666 12.0003 3.66666C16.6027 3.66666 20.3337 7.39761 20.3337 12C20.3337 16.6023 16.6027 20.3333 12.0003 20.3333Z" stroke="#333333" stroke-width="1.5" stroke-linecap="round" stroke-linejoin="round" />
  <path d="M15.75 14.0833C15.75 14.0833 14.5 15.75 12 15.75C9.5 15.75 8.25 14.0833 8.25 14.0833" stroke="#333333" stroke-width="1.5" stroke-linecap="round" stroke-linejoin="round" />
  <path d="M14.9167 9.49999C14.6866 9.49999 14.5 9.31344 14.5 9.08332C14.5 8.85321 14.6866 8.66666 14.9167 8.66666C15.1467 8.66666 15.3333 8.85321 15.3333 9.08332C15.3333 9.31344 15.1467 9.49999 14.9167 9.49999Z" fill="#333333" stroke="#333333" stroke-width="1.5" stroke-linecap="round" stroke-linejoin="round" />
  <path d="M9.08366 9.49999C8.85354 9.49999 8.66699 9.31344 8.66699 9.08332C8.66699 8.85321 8.85354 8.66666 9.08366 8.66666C9.31378 8.66666 9.50033 8.85321 9.50033 9.08332C9.50033 9.31344 9.31378 9.49999 9.08366 9.49999Z" fill="#333333" stroke="#333333" stroke-width="1.5" stroke-linecap="round" stroke-linejoin="round" />
</svg>