<svg width="24" height="24" viewBox="0 0 24 24" fill="none" xmlns="http://www.w3.org/2000/svg">
  <path d="M12 15C13.6569 15 15 13.6569 15 12C15 10.3431 13.6569 9 12 9C10.3431 9 9 10.3431 9 12C9 13.6569 10.3431 15 12 15Z" stroke="#828282" stroke-width="1.5" stroke-linecap="round" stroke-linejoin="round" />
  <path d="M20.5542 10.6324C19.9678 10.4832 19.486 10.0662 19.2545 9.50708L18.8731 8.58603C18.6591 8.06939 18.7515 7.47652 19.1126 7.04952V7.04952C19.6142 6.45624 19.5775 5.57752 19.0281 5.02815L18.9717 4.9717C18.4232 4.42318 17.545 4.3888 16.9553 4.89277V4.89277C16.5314 5.25506 15.9403 5.34954 15.4245 5.13743L14.4467 4.73528C13.8868 4.50506 13.4674 4.02563 13.3136 3.44019L13.1836 2.94531C13.0373 2.38831 12.5338 2 11.9579 2V2C11.3822 2 10.8789 2.38803 10.7324 2.94476L10.5953 3.46563C10.4401 4.05553 10.0198 4.53995 9.45771 4.77688L8.54699 5.16078C8.03223 5.37777 7.43859 5.27953 7.02118 4.90827V4.90827C6.4478 4.39829 5.57623 4.42377 5.03362 4.96638L4.9776 5.0224C4.42213 5.57787 4.37994 6.46764 4.87529 7.07733V7.07733C5.23038 7.51439 5.32152 8.11302 5.10935 8.63466L4.73486 9.5554C4.5076 10.1141 4.02329 10.5278 3.43589 10.6649L2.99253 10.7684C2.41123 10.904 2 11.4223 2 12.0192V12.0192C2 12.5983 2.38752 13.1058 2.94618 13.2583L3.46683 13.4004C4.05665 13.5615 4.53981 13.9845 4.7773 14.5479L5.16104 15.4582C5.3777 15.9722 5.27926 16.565 4.9081 16.9813V16.9813C4.39837 17.5531 4.42332 18.4233 4.96497 18.965L5.02221 19.0222C5.57757 19.5776 6.46767 19.6189 7.0765 19.1227V19.1227C7.515 18.7654 8.11701 18.6743 8.64014 18.8896L9.5026 19.2444C10.0652 19.4758 10.4848 19.9602 10.6338 20.55L10.7551 21.0301C10.8991 21.6004 11.4121 22 12.0004 22V22C12.5882 22 13.1011 21.6008 13.2454 21.0309L13.3675 20.5488C13.5167 19.96 13.9351 19.4763 14.4962 19.2439L15.4729 18.8394C15.9594 18.6379 16.5925 18.7739 16.9925 19.1164V19.1164C17.6034 19.6395 18.4503 19.5497 19.019 18.981V18.981C19.5706 18.4294 19.6118 17.5421 19.1073 16.9471V16.9471C18.7442 16.5187 18.651 15.9232 18.8658 15.4044L19.2444 14.4901C19.4771 13.9283 19.9598 13.508 20.5484 13.3549L21.0459 13.2254C21.6078 13.0792 21.9999 12.572 22 11.9915V11.9915C22 11.4083 21.6043 10.8994 21.0391 10.7557L20.5542 10.6324Z" stroke="#828282" stroke-width="1.5" stroke-linecap="round" stroke-linejoin="round" />
</svg>