<svg width="160" height="160" viewBox="0 0 160 160" fill="none" xmlns="http://www.w3.org/2000/svg">
  <g clip-path="url(#clip0_201_1167)">
    <path d="M46.875 66.75H66.75V46.875L43.5625 23.6875C50.9801 20.1449 59.3134 18.9891 67.4151 20.3791C75.5168 21.7692 82.9884 25.6367 88.8008 31.4492C94.6133 37.2617 98.4809 44.7332 99.8709 52.8349C101.261 60.9366 100.105 69.27 96.5625 76.6875L136.313 116.438C138.948 119.073 140.429 122.648 140.429 126.375C140.429 130.102 138.948 133.677 136.313 136.313C133.677 138.948 130.102 140.429 126.375 140.429C122.648 140.429 119.073 138.948 116.438 136.313L76.6875 96.5625C69.27 100.105 60.9366 101.261 52.8349 99.8709C44.7332 98.4809 37.2617 94.6133 31.4492 88.8008C25.6367 82.9884 21.7692 75.5168 20.3791 67.4151C18.9891 59.3134 20.1449 50.9801 23.6875 43.5625L46.875 66.75Z" stroke="#7F7F7F" stroke-width="8" stroke-linecap="round" stroke-linejoin="round" />
  </g>
  <defs>
    <clipPath id="clip0_201_1167">
      <rect width="159" height="159" fill="white" transform="translate(0.5 0.5)" />
    </clipPath>
  </defs>
</svg>