<svg width="22" height="22" viewBox="0 0 22 22" fill="none" xmlns="http://www.w3.org/2000/svg">
  <path d="M9.24138 20H5C3.34315 20 2 18.6569 2 17V5C2 3.34315 3.34315 2 5 2H13C14.6569 2 16 3.34315 16 5V9" stroke="black" stroke-width="1.5" stroke-linecap="round" stroke-linejoin="round" />
  <path d="M6 7H12M6 11H8.25" stroke="black" stroke-width="1.375" stroke-linecap="round" stroke-linejoin="round" />
  <path d="M16.5637 12.0697L19.4897 12.8057C19.7943 12.8824 20.0091 13.1565 19.9997 13.4675C19.8031 19.9974 16 21 16 21C16 21 12.1969 19.9974 12.0003 13.4675C11.9909 13.1565 12.2057 12.8824 12.5103 12.8057L15.4363 12.0697C15.8063 11.9768 16.1937 11.9768 16.5637 12.0697Z" stroke="black" stroke-width="1.375" stroke-linecap="round" stroke-linejoin="round" />
</svg>